<svg width="1980" height="1020" viewBox="0 0 1980 1020" fill="none" xmlns="http://www.w3.org/2000/svg">
<g clip-path="url(#clip0_479_79)">
<path d="M-86 522.314C-20.5126 540.34 79.3789 559.578 199.169 548.285C233.505 545.049 265.65 539.663 386.576 507.89C578.209 457.537 651.988 437.003 748 400C856.128 358.325 847.595 354.894 1067 259.742C1086.3 251.369 1201.09 202.01 1355.31 155.863C1422.43 135.78 1477.74 122.077 1548.49 127.009C1600.8 130.656 1658.28 134.669 1701.29 176.064C1762.56 235.026 1754.17 331.029 1750.3 375.163C1748.3 398.078 1749.69 440.655 1676 606C1615.12 742.584 1590.41 774.957 1591 841C1591 918 1610.36 947.334 1623 963C1648.32 994.394 1676.4 1011.29 1695.53 1017" stroke="url(#paint0_linear_479_79)" stroke-width="3" stroke-miterlimit="10"/>
<path d="M-86 652.379C-7.72393 661.499 109.762 667.074 248.037 640.844C331.226 625.063 389.544 603.917 478.584 571.635C640.112 513.066 677.629 503.308 878 420C978.487 378.219 1037.41 338.075 1170.23 294.791C1248.34 269.344 1328.76 244.97 1429.6 257.3C1515.04 267.748 1547.96 296.337 1562.17 311.411C1599.03 350.541 1604.46 399.096 1608.27 433.21C1615.69 499.588 1598.81 552.439 1565.04 658.146C1540.15 736.066 1518 794 1518 794C1502.43 836.799 1492.04 865.755 1487.23 897.504C1479.68 947.362 1486.39 989.647 1493 1017" stroke="url(#paint1_linear_479_79)" stroke-width="3" stroke-miterlimit="10" stroke-linecap="round" stroke-dasharray="1 30"/>
<path d="M-86 772.669C-27.3081 779.155 52.9751 783.098 147.253 772.669C169.738 770.183 263.023 759.128 386.533 717.946C443.506 698.949 460.647 688.966 645.989 602.739C847.454 509.016 884.871 493.987 916.982 481.772C955.702 467.047 1055.32 430.341 1187.97 409.769C1284.29 394.833 1332.54 398.559 1375.36 424.172C1421.88 451.986 1444.23 494.998 1450.32 507.696C1472.08 553.044 1469.9 594.071 1467.61 637.299C1465.9 669.628 1458.78 699.178 1444.55 758.266C1436.36 792.275 1423.81 821.97 1410 858C1398.12 888.995 1397.53 894.368 1381.13 931.073C1370.32 955.254 1356.79 988.264 1343.65 1029" stroke="url(#paint2_linear_479_79)" stroke-width="3" stroke-miterlimit="10"/>
<circle cx="188" cy="419" r="15" fill="#3969BD" fill-opacity="0.8"/>
<circle cx="879" cy="497" r="15" fill="#3969BD" fill-opacity="0.8"/>
<g clip-path="url(#clip1_479_79)">
<path d="M958.351 223.1C931.201 298.87 924.201 363.67 958.351 413.99" stroke="#020203" stroke-width="0.5788" stroke-miterlimit="10"/>
</g>
<g clip-path="url(#clip2_479_79)">
<path d="M-51.9062 364.668C13.6143 386.942 118.752 416.055 249.655 421.592C553.365 434.444 814.918 312.762 1009.26 222.353C1130.18 166.096 1255.38 119.345 1376.26 62.9611C1468.75 19.8103 1542.36 -16.9145 1637.99 -2.50621C1663.3 1.30495 1756.39 15.3427 1811.52 88.5806C1896.33 201.243 1833.67 377.467 1805.83 455.755C1772.4 549.753 1754.66 568.216 1715.42 677.766C1686.69 757.98 1679.29 826.581 1715.42 879.853C1757.94 942.525 1845.65 948.634 1879.8 951.005C1970.15 957.304 2038.03 919.034 2063.83 902.614" stroke="url(#paint3_linear_479_79)" stroke-width="3" stroke-miterlimit="10"/>
</g>
</g>
<defs>
<linearGradient id="paint0_linear_479_79" x1="833.5" y1="126" x2="833.5" y2="1017" gradientUnits="userSpaceOnUse">
<stop offset="0.0681537" stop-color="#152042"/>
<stop offset="0.318154" stop-color="#5688D7"/>
<stop offset="0.568154" stop-color="#70BEF5"/>
</linearGradient>
<linearGradient id="paint1_linear_479_79" x1="762" y1="254" x2="762" y2="1017" gradientUnits="userSpaceOnUse">
<stop stop-color="#152042"/>
<stop offset="0.123154" stop-color="#5688D6"/>
<stop offset="0.483154" stop-color="#70BEF5"/>
</linearGradient>
<linearGradient id="paint2_linear_479_79" x1="691.5" y1="401" x2="691.5" y2="1029" gradientUnits="userSpaceOnUse">
<stop stop-color="#152042"/>
<stop offset="0.243154" stop-color="#5688D6"/>
<stop offset="0.503154" stop-color="#70BEF5"/>
</linearGradient>
<linearGradient id="paint3_linear_479_79" x1="1005.96" y1="-5.68945" x2="1005.96" y2="951.698" gradientUnits="userSpaceOnUse">
<stop offset="0.07" stop-color="#152042"/>
<stop offset="0.32" stop-color="#5688D6"/>
<stop offset="0.57" stop-color="#70BEF5"/>
</linearGradient>
<clipPath id="clip0_479_79">
<rect width="1980" height="1020" fill="white"/>
</clipPath>
<clipPath id="clip1_479_79">
<rect width="23.62" height="191.15" fill="white" transform="translate(935 223)"/>
</clipPath>
<clipPath id="clip2_479_79">
<rect width="2116" height="958" fill="white" transform="translate(-52 -6)"/>
</clipPath>
</defs>
</svg>
